<?xml version="1.0" standalone="no"?>
<svg xmlns="http://www.w3.org/2000/svg" viewBox="0 0 145.632 24.167" width="145.632" height="24.167"><g fill="#e13eb2" color="#e13eb2" transform="translate(0, 0) scale(0.6041667)"><svg width="48.0" height="40.0" x="0.0" y="0.0" viewBox="0 0 48 40"><path fill="currentColor" fill-rule="evenodd" d="M41.576 0L12.872 28.703v-2.95L38.625 0h-4.1l-10.9 10.898L12.725 0h-4.1l12.949 12.95-1.476 1.474L5.675 0h-4.1l16.474 16.475-1.475 1.475L0 1.376V40h2.9V8.378l2.087 2.086V40h2.9V13.364l2.086 2.087V40h2.9v-.146l10.752-10.752L34.525 40h2.951V15.253l2.086-2.087V40h2.9V10.266l2.087-2.086V40h2.898V5.434h-.153l.153-.154V1.178L12.872 35.754v-2.95L45.675 0h-4.1zm-8.849 20l1.848-1.848v3.697L32.727 20zm-19.855-1.65L14.522 20l-1.65 1.65V18.35zm16.329 5.176l1.476-1.474 3.898 3.899v2.952l-5.374-5.377zm-3.526 3.526l1.475-1.476 7.425 7.426v2.95l-8.9-8.9z"></path></svg></g><line x1="41" y1="1" x2="41" y2="23.167" stroke="#000000" stroke-linecap="round"></line><path fill="#000000" fill-rule="nonzero" d="M11.30 18.19L8.40 18.48L3.14 7.22L3.14 18.19L0 18.34L0 0.48L3.67 0.34L8.33 11.04L8.33 0.62L11.30 0.34L11.30 18.19ZM23.71 18.34L14.66 18.34L14.66 0.34L23.81 0.34L23.52 3.14L18.19 3.14L18.19 7.44L21.98 7.44L21.96 10.46L18.19 10.46L18.19 15.53L24 15.53L23.71 18.34ZM31.78 18.34L28.56 18.34L24.89 0.48L28.73 0.34L30.62 11.11L32.66 0.48L35.54 0.34L37.44 11.23L39.72 0.48L42.96 0.34L39.10 18.34L35.62 18.34L33.72 7.34L31.78 18.34ZM44.62 18.48L44.62 5.11L47.98 4.82L47.98 7.01Q48.70 5.98 49.76 5.34Q50.83 4.70 52.49 4.70L52.49 4.70L52.49 7.99Q51.62 7.99 50.22 8.29Q48.82 8.59 47.98 9.34L47.98 9.34L47.98 18.19L44.62 18.48ZM58.70 18.65Q56.28 18.65 54.97 16.73Q53.66 14.81 53.66 11.62L53.66 11.62Q53.66 8.45 54.96 6.55Q56.26 4.66 58.70 4.66L58.70 4.66Q61.13 4.66 62.46 6.55Q63.79 8.45 63.79 11.62L63.79 11.62Q63.79 14.78 62.46 16.72Q61.13 18.65 58.70 18.65L58.70 18.65ZM58.70 16.15Q59.78 16.15 60.10 14.83Q60.41 13.51 60.41 11.59L60.41 11.59Q60.41 9.67 60.10 8.35Q59.78 7.03 58.70 7.03L58.70 7.03Q57.62 7.03 57.34 8.28Q57.05 9.53 57.05 11.33L57.05 11.33Q57.05 13.54 57.34 14.84Q57.62 16.15 58.70 16.15L58.70 16.15ZM72.12 18.19L68.62 18.48L68.62 3.14L64.94 3.14L65.21 0.34L75.77 0.34L75.48 3.14L72.12 3.14L72.12 18.19ZM81.26 18.19L77.74 18.48L77.74 0.62L81.26 0.34L81.26 18.19ZM89.52 18.67Q86.42 18.67 85.16 15.86Q83.90 13.06 83.90 8.95L83.90 8.95Q83.90 6.74 84.48 4.70Q85.06 2.66 86.34 1.33Q87.62 0 89.59 0L89.59 0Q91.10 0 92.24 0.94Q93.38 1.87 94.00 3.37Q94.61 4.87 94.61 6.50L94.61 6.50L91.20 6.67Q91.20 5.59 90.84 4.21Q90.48 2.83 89.40 2.83L89.40 2.83Q88.27 2.83 87.84 4.63Q87.41 6.43 87.41 8.95L87.41 8.95Q87.41 12.07 87.89 13.96Q88.37 15.84 89.74 15.84L89.74 15.84Q90.70 15.84 91.10 14.70Q91.51 13.56 91.63 11.93L91.63 11.93L94.63 12.22Q94.63 13.94 94.06 15.42Q93.48 16.90 92.33 17.78Q91.18 18.67 89.52 18.67L89.52 18.67Z" transform="translate(51, 2.748)"></path></svg>